<?xml version="1.0" encoding="UTF-8" standalone="no"?>
<!-- Generator: Adobe Illustrator 19.0.0, SVG Export Plug-In . SVG Version: 6.00 Build 0)  -->

<svg
   xmlns:dc="http://purl.org/dc/elements/1.1/"
   xmlns:cc="http://creativecommons.org/ns#"
   xmlns:rdf="http://www.w3.org/1999/02/22-rdf-syntax-ns#"
   xmlns:svg="http://www.w3.org/2000/svg"
   xmlns="http://www.w3.org/2000/svg"
   xmlns:sodipodi="http://sodipodi.sourceforge.net/DTD/sodipodi-0.dtd"
   xmlns:inkscape="http://www.inkscape.org/namespaces/inkscape"
   version="1.1"
   id="Layer_1"
   x="0px"
   y="0px"
   viewBox="0 0 509.287 509.287"
   style="enable-background:new 0 0 509.287 509.287;"
   xml:space="preserve"
   inkscape:version="0.91 r13725"
   sodipodi:docname="logo-mk.svg"><metadata
     id="metadata77"><rdf:RDF><cc:Work
         rdf:about=""><dc:format>image/svg+xml</dc:format><dc:type
           rdf:resource="http://purl.org/dc/dcmitype/StillImage" /><dc:title></dc:title></cc:Work></rdf:RDF></metadata><defs
     id="defs75" /><sodipodi:namedview
     pagecolor="#ffffff"
     bordercolor="#666666"
     borderopacity="1"
     objecttolerance="10"
     gridtolerance="10"
     guidetolerance="10"
     inkscape:pageopacity="0"
     inkscape:pageshadow="2"
     inkscape:window-width="1920"
     inkscape:window-height="1029"
     id="namedview73"
     showgrid="false"
     inkscape:zoom="1.1829381"
     inkscape:cx="218.39159"
     inkscape:cy="219.15165"
     inkscape:window-x="0"
     inkscape:window-y="25"
     inkscape:window-maximized="1"
     inkscape:current-layer="Layer_1"
     showguides="true"
     inkscape:guide-bbox="true"><sodipodi:guide
       position="-25.360584,103.97839"
       orientation="0,1"
       id="guide8151" /><sodipodi:guide
       position="120.46277,132.72039"
       orientation="0,1"
       id="guide8120" /></sodipodi:namedview><ellipse
     style="fill:#58ba52;fill-opacity:1;stroke:#000000;stroke-width:4.18283367;stroke-miterlimit:4;stroke-dasharray:none;stroke-opacity:1"
     cx="-360.06418"
     cy="3.2473011"
     id="circle3-2"
     transform="matrix(-0.70070244,-0.71345363,0.72248545,-0.69138613,0,0)"
     rx="166.32933"
     ry="168.55591" /><ellipse
     style="fill:none;fill-opacity:1;stroke:#000000;stroke-width:4.76989937;stroke-miterlimit:4;stroke-dasharray:none;stroke-opacity:1"
     cx="-43.740208"
     cy="357.75085"
     id="circle3"
     transform="matrix(-0.78356933,0.62130435,0.61598882,0.78775489,0,0)"
     rx="242.72705"
     ry="243.12361" /><g
     id="g8137"
     transform="matrix(0.58618213,0,0,0.59415281,108.10724,81.298734)"
     style="stroke-width:7.08740044;stroke-miterlimit:4;stroke-dasharray:none"><polygon
       id="polygon7"
       points="479.449,149.87 254.644,34.246 29.838,149.87 "
       style="fill:#caced4;fill-opacity:1;stroke:#000000;stroke-width:0;stroke-miterlimit:4;stroke-dasharray:none;stroke-opacity:1" /><polygon
       id="polygon9"
       points="126.474,126.474 254.644,60.694 382.813,126.474 "
       style="fill:#e9e9e9;fill-opacity:1;stroke:#000000;stroke-width:0;stroke-miterlimit:4;stroke-dasharray:none;stroke-opacity:1" /><rect
       style="color:#000000;clip-rule:nonzero;display:inline;overflow:visible;visibility:visible;opacity:0.98999999;isolation:auto;mix-blend-mode:normal;color-interpolation:sRGB;color-interpolation-filters:linearRGB;solid-color:#000000;solid-opacity:1;fill:#646b79;fill-opacity:1;fill-rule:nonzero;stroke:#bdbdbe;stroke-width:0;stroke-linecap:round;stroke-linejoin:miter;stroke-miterlimit:4;stroke-dasharray:none;stroke-dashoffset:0;stroke-opacity:1;color-rendering:auto;image-rendering:auto;shape-rendering:auto;text-rendering:auto;enable-background:accumulate"
       id="rect9889"
       width="274.91608"
       height="270.80801"
       x="109.08476"
       y="161.35385" /><rect
       x="60.015999"
       y="149.87"
       style="fill:#dededf;fill-opacity:1;stroke:#000000;stroke-width:0;stroke-miterlimit:4;stroke-dasharray:none;stroke-opacity:1"
       width="389.25601"
       height="22.718"
       id="rect13" /><rect
       x="60.015999"
       y="423.50201"
       style="fill:#d0d0d1;fill-opacity:1;stroke:#000000;stroke-width:0;stroke-miterlimit:4;stroke-dasharray:none;stroke-opacity:1"
       width="389.25601"
       height="22.718"
       id="rect15" /><rect
       x="40.011002"
       y="445.203"
       style="fill:#a9a9ab;fill-opacity:1;stroke:#000000;stroke-width:0;stroke-miterlimit:4;stroke-dasharray:none;stroke-opacity:1"
       width="429.26599"
       height="22.718"
       id="rect19" /><g
       id="g9891"><rect
         x="96.184372"
         y="203.105"
         style="fill:#d0d0d1;fill-opacity:1;stroke:#000000;stroke-width:0;stroke-miterlimit:4;stroke-dasharray:none;stroke-opacity:1"
         width="59.338001"
         height="190.55901"
         id="rect25" /><path
         id="path21"
         d="m 71.623163,172.927 0,16.18814 c 0,10.92696 8.903894,19.83086 19.830858,19.83086 l 68.798699,0 c 10.92696,0 19.83086,-8.9039 19.83086,-19.83086 l 0,-16.18814 -108.460417,0 z"
         style="fill:#a9a9ab;fill-opacity:1;stroke:#000000;stroke-width:0;stroke-miterlimit:4;stroke-dasharray:none;stroke-opacity:1"
         inkscape:connector-curvature="0" /><path
         id="path23"
         d="m 180.32337,423.502 0,-16.25972 c 0,-10.97528 -8.94327,-19.91854 -19.91855,-19.91854 l -69.1029,0 c -10.975281,0 -19.918546,8.94326 -19.918546,19.91854 l 0,16.25972 108.939996,0 z"
         style="fill:#a9a9ab;fill-opacity:1;stroke:#000000;stroke-width:0;stroke-miterlimit:4;stroke-dasharray:none;stroke-opacity:1"
         inkscape:connector-curvature="0" /></g><g
       id="g9896"
       transform="translate(-5.2200983,0)"><path
         id="path29"
         d="m 209.886,172.927 0,13.563 c 0,9.155 7.46,16.615 16.615,16.615 l 57.981,0 c 9.155,0 16.615,-7.46 16.615,-16.615 l 0,-13.563 -91.211,0 z"
         style="fill:#a9a9ab;fill-opacity:1;stroke:#000000;stroke-width:0;stroke-miterlimit:4;stroke-dasharray:none;stroke-opacity:1"
         inkscape:connector-curvature="0" /><path
         id="path31"
         d="m 300.758,423.502 0,-13.563 c 0,-9.155 -7.46,-16.615 -16.615,-16.615 l -57.981,0 c -9.155,0 -16.615,7.46 -16.615,16.615 l 0,13.563 91.211,0 z"
         style="fill:#a9a9ab;fill-opacity:1;stroke:#000000;stroke-width:0;stroke-miterlimit:4;stroke-dasharray:none;stroke-opacity:1"
         inkscape:connector-curvature="0" /><rect
         x="225.483"
         y="203.105"
         style="fill:#d0d0d1;fill-opacity:1;stroke:#000000;stroke-width:0;stroke-miterlimit:4;stroke-dasharray:none;stroke-opacity:1"
         width="59.338001"
         height="190.55901"
         id="rect33" /></g><g
       id="g9901"><rect
         x="344.68146"
         y="188.5025"
         style="fill:#d0d0d1;fill-opacity:1;stroke:#000000;stroke-width:0;stroke-miterlimit:4;stroke-dasharray:none;stroke-opacity:1"
         width="59.338001"
         height="212.67136"
         id="rect41" /><path
         id="path37"
         d="m 319.91794,172.927 0,16.18814 c 0,10.92696 8.90389,19.83086 19.83086,19.83086 l 69.2033,0 c 10.92697,0 19.83086,-8.9039 19.83086,-19.83086 l 0,-16.18814 -108.86502,0 z"
         style="fill:#a9a9ab;fill-opacity:1;stroke:#000000;stroke-width:0;stroke-miterlimit:4;stroke-dasharray:none;stroke-opacity:1"
         inkscape:connector-curvature="0" /><path
         id="path39"
         d="m 428.82045,423.502 0,-16.25972 c 0,-10.97528 -8.94327,-19.91854 -19.91855,-19.91854 l -69.1029,0 c -10.97528,0 -19.91855,8.94326 -19.91855,19.91854 l 0,16.25972 108.94,0 z"
         style="fill:#a9a9ab;fill-opacity:1;stroke:#000000;stroke-width:0;stroke-miterlimit:4;stroke-dasharray:none;stroke-opacity:1"
         inkscape:connector-curvature="0" /></g></g><g
     style="font-style:normal;font-weight:normal;font-size:16.25px;line-height:200%;font-family:sans-serif;letter-spacing:7.05000019px;word-spacing:9.64000034px;fill:#000000;fill-opacity:1;stroke:none;stroke-width:1px;stroke-linecap:butt;stroke-linejoin:miter;stroke-opacity:1"
     id="text8129"
     transform="matrix(0.950655,0,0,0.95729448,12.56541,10.874705)"><path
       d="m 109.77223,58.681151 10.20712,-5.836169 32.61947,27.065956 -6.7117,-41.879355 10.20712,-5.836169 28.94818,50.628668 -6.68041,3.819686 -25.41933,-44.456922 6.79899,42.189419 -6.88387,3.936021 -32.91022,-27.259685 25.41932,44.456919 -6.64649,3.8003 -28.94818,-50.628669 z"
       style="font-size:80px;line-height:200%;letter-spacing:7.05000019px;word-spacing:9.64000034px"
       id="path8138"
       inkscape:connector-curvature="0" /><path
       d="m 223.31698,22.671238 -6.58356,30.22538 21.23896,-2.967836 -14.6554,-27.257544 z m -5.48605,-7.082367 8.85924,-1.237949 30.08369,54.683182 -8.12419,1.135238 -7.33184,-14.081777 -26.0361,3.638166 -3.19092,15.552181 -8.24026,1.151455 13.98038,-60.840496 z"
       style="font-size:80px;line-height:200%;letter-spacing:7.05000019px;word-spacing:9.64000034px"
       id="path8140"
       inkscape:connector-curvature="0" /><path
       d="m 294.59719,22.441475 -4.71795,21.400166 9.6892,2.136113 q 5.37865,1.185794 8.92985,-0.951336 3.5512,-2.13713 4.68654,-7.286903 1.12692,-5.111626 -1.19643,-8.543879 -2.32336,-3.432253 -7.70201,-4.618048 l -9.6892,-2.136113 z m -6.30954,-8.03111 17.39478,3.83491 q 9.57477,2.110883 13.49879,7.536046 3.97057,5.395426 2.12881,13.749501 -1.85859,8.430369 -7.7298,11.656043 -5.83307,3.234084 -15.40783,1.123201 l -9.6892,-2.136112 -5.04594,22.887878 -7.70558,-1.698798 12.55597,-56.952669 z"
       style="font-size:80px;line-height:200%;letter-spacing:7.05000019px;word-spacing:9.64000034px"
       id="path8142"
       inkscape:connector-curvature="0" /><path
       d="m 374.57483,51.116622 -23.61321,19.983318 18.66195,10.565652 4.95126,-30.54897 z m -0.0454,-8.958493 7.78431,4.407167 -9.39138,61.701544 -7.13845,-4.0415 2.74794,-15.636535 -22.87704,-12.952065 -11.99393,10.40182 -7.24043,-4.099242 48.10898,-39.781189 z"
       style="font-size:80px;line-height:200%;letter-spacing:7.05000019px;word-spacing:9.64000034px"
       id="path8144"
       inkscape:connector-curvature="0" /></g><flowRoot
     xml:space="preserve"
     id="flowRoot8136"
     style="font-style:normal;font-weight:normal;font-size:16.25px;line-height:125%;font-family:sans-serif;letter-spacing:0px;word-spacing:0px;fill:#000000;fill-opacity:1;stroke:none;stroke-width:5;stroke-linecap:butt;stroke-linejoin:miter;stroke-miterlimit:4;stroke-dasharray:none;stroke-opacity:1"
     transform="matrix(0.950655,0,0,0.95729448,12.56541,10.874705)"><flowRegion
       id="flowRegion8138"><rect
         id="rect8140"
         width="367.93826"
         height="18.342964"
         x="19.421961"
         y="435.91513"
         style="stroke-width:5;stroke-miterlimit:4;stroke-dasharray:none" /></flowRegion><flowPara
       id="flowPara8142" /></flowRoot><g
     style="font-style:normal;font-weight:normal;font-size:60px;line-height:111.99909449%;font-family:sans-serif;letter-spacing:7px;word-spacing:9.64000034px;fill:#000000;fill-opacity:1;stroke:none;stroke-width:1px;stroke-linecap:butt;stroke-linejoin:miter;stroke-opacity:1"
     id="text8144"
     transform="matrix(0.950655,0,0,0.95729448,12.56541,10.874705)"><path
       d="m 112.16358,376.89178 5.66007,5.49777 -17.17375,17.68072 35.94725,0.55449 7.28524,7.07634 -39.70577,-0.66556 0.55628,43.94214 -7.45336,-7.23965 -0.521632,-39.66087 -19.56882,20.14649 -5.660072,-5.49778 40.634564,-41.83409 z"
       style="font-size:80px;line-height:111.99909449%;letter-spacing:14.05000019px;word-spacing:9.64000034px"
       id="path8123"
       inkscape:connector-curvature="0" /><path
       d="m 145.23138,407.94529 6.95736,3.80461 -16.99893,31.08535 q -4.49807,8.22545 -3.50298,13.48891 1.01382,5.22918 7.697,8.88386 6.6489,3.63593 11.59853,1.66785 4.96837,-2.00236 9.46644,-10.22781 l 16.99893,-31.08535 6.95736,3.80461 -17.46748,31.94217 q -5.47265,10.00763 -13.23474,12.39668 -7.72782,2.4078 -17.39272,-2.87743 -9.69918,-5.30397 -11.87617,-13.12818 -2.14273,-7.80547 3.32992,-17.81311 l 17.46748,-31.94216 z"
       style="font-size:80px;line-height:111.99909449%;letter-spacing:14.05000019px;word-spacing:9.64000034px"
       id="path8125"
       inkscape:connector-curvature="0" /><path
       d="m 197.05582,432.7372 7.61744,2.05829 -13.48076,49.89047 27.41525,7.4078 -1.73222,6.41072 -35.03269,-9.46609 15.21298,-56.30119 z"
       style="font-size:80px;line-height:111.99909449%;letter-spacing:14.05000019px;word-spacing:9.64000034px"
       id="path8127"
       inkscape:connector-curvature="0" /><path
       d="m 221.13563,440.18995 49.27934,2.36236 -0.31797,6.633 -20.67938,-0.99133 -2.47458,51.62041 -7.92059,-0.37969 2.47458,-51.62041 -20.67938,-0.99133 0.31798,-6.63301 z"
       style="font-size:80px;line-height:111.99909449%;letter-spacing:14.05000019px;word-spacing:9.64000034px"
       id="path8129"
       inkscape:connector-curvature="0" /><path
       d="m 273.44512,442.0067 7.74184,-1.71577 7.66602,34.59039 q 2.02849,9.15291 6.24234,12.46012 4.2054,3.26907 11.64214,1.62092 7.39861,-1.6397 9.82907,-6.37943 2.42202,-4.77787 0.39352,-13.93078 l -7.66602,-34.59039 7.74184,-1.71577 7.87732,35.54382 q 2.468,11.13605 -1.80252,18.04403 -4.2324,6.89953 -14.98707,9.28301 -10.79281,2.39193 -17.58205,-2.06495 -6.75111,-4.46534 -9.21911,-15.60138 l -7.87732,-35.54382 z"
       style="font-size:80px;line-height:111.99909449%;letter-spacing:14.05000019px;word-spacing:9.64000034px"
       id="path8131"
       inkscape:connector-curvature="0" /><path
       d="m 365.86547,442.35081 q 2.64517,-0.4341 6.0699,0.92941 3.45922,1.34515 7.90933,4.55246 l 14.55606,10.30778 -7.48306,3.98195 -13.61453,-9.70258 q -5.30432,-3.81472 -8.61736,-4.21994 -3.27856,-0.42358 -7.41666,1.77842 l -7.58651,4.037 11.57885,21.7595 -6.9658,3.7067 -27.39655,-51.48483 15.72477,-8.3676 q 8.82794,-4.6976 15.1364,-3.3199 6.30845,1.37771 10.27205,8.82628 2.58735,4.86227 2.01795,9.28039 -0.53492,4.39978 -4.18484,7.93496 z m -28.95443,-12.33646 9.7255,18.2766 8.75897,-4.6609 q 5.03469,-2.67911 6.35706,-6.34744 1.33852,-3.72118 -1.06533,-8.2386 -2.40386,-4.51742 -6.20127,-5.41712 -3.78127,-0.95254 -8.81596,1.72656 l -8.75897,4.6609 z"
       style="font-size:80px;line-height:111.99909449%;letter-spacing:14.05000019px;word-spacing:9.64000034px"
       id="path8133"
       inkscape:connector-curvature="0" /><path
       d="m 362.28351,409.42665 6.27409,-5.69981 28.09751,6.8782 -4.2444,-28.548 6.2741,-5.69982 5.27435,36.47854 18.67542,20.55704 -5.86931,5.33209 -18.67543,-20.55705 -35.80633,-8.74119 z"
       style="font-size:80px;line-height:111.99909449%;letter-spacing:14.05000019px;word-spacing:9.64000034px"
       id="path8135"
       inkscape:connector-curvature="0" /></g></svg>