<?xml version="1.0" encoding="UTF-8" standalone="no"?>
<!-- Generator: Adobe Illustrator 19.0.0, SVG Export Plug-In . SVG Version: 6.00 Build 0)  -->

<svg
   xmlns:dc="http://purl.org/dc/elements/1.1/"
   xmlns:cc="http://creativecommons.org/ns#"
   xmlns:rdf="http://www.w3.org/1999/02/22-rdf-syntax-ns#"
   xmlns:svg="http://www.w3.org/2000/svg"
   xmlns="http://www.w3.org/2000/svg"
   xmlns:sodipodi="http://sodipodi.sourceforge.net/DTD/sodipodi-0.dtd"
   xmlns:inkscape="http://www.inkscape.org/namespaces/inkscape"
   version="1.1"
   id="Layer_1"
   x="0px"
   y="0px"
   viewBox="0 0 509.287 509.287"
   style="enable-background:new 0 0 509.287 509.287;"
   xml:space="preserve"
   inkscape:version="0.91 r13725"
   sodipodi:docname="logo-mk.svg"><metadata
     id="metadata77"><rdf:RDF><cc:Work
         rdf:about=""><dc:format>image/svg+xml</dc:format><dc:type
           rdf:resource="http://purl.org/dc/dcmitype/StillImage" /><dc:title></dc:title></cc:Work></rdf:RDF></metadata><defs
     id="defs75" /><sodipodi:namedview
     pagecolor="#ffffff"
     bordercolor="#666666"
     borderopacity="1"
     objecttolerance="10"
     gridtolerance="10"
     guidetolerance="10"
     inkscape:pageopacity="0"
     inkscape:pageshadow="2"
     inkscape:window-width="1920"
     inkscape:window-height="1029"
     id="namedview73"
     showgrid="false"
     inkscape:zoom="1.6729271"
     inkscape:cx="231.67678"
     inkscape:cy="286.41897"
     inkscape:window-x="0"
     inkscape:window-y="25"
     inkscape:window-maximized="1"
     inkscape:current-layer="Layer_1"
     showguides="true"
     inkscape:guide-bbox="true"><sodipodi:guide
       position="-25.360584,103.97839"
       orientation="0,1"
       id="guide8151" /><sodipodi:guide
       position="534.3927,209.21414"
       orientation="0,1"
       id="guide8120" /></sodipodi:namedview><ellipse
     style="fill:#58ba52;fill-opacity:1;stroke:#000000;stroke-width:3.8186698;stroke-miterlimit:4;stroke-dasharray:none;stroke-opacity:1"
     cx="-356.16281"
     cy="-60.815506"
     id="circle3-2"
     transform="matrix(-0.8163441,-0.57756585,0.59372084,-0.80467109,0,0)"
     rx="151.83208"
     ry="153.89777" /><circle
     style="fill:none;fill-opacity:1;stroke:#000000;stroke-width:5;stroke-miterlimit:4;stroke-dasharray:none;stroke-opacity:1"
     cx="-180.87651"
     cy="311.4014"
     id="circle3"
     transform="matrix(-0.96660021,0.25628895,0.25628895,0.96660021,0,0)"
     r="254.644" /><g
     id="g8137"
     transform="matrix(0.53698301,0,0,0.54050972,120.40628,96.949207)"
     style="stroke-width:7.08740044;stroke-miterlimit:4;stroke-dasharray:none"><polygon
       id="polygon7"
       points="479.449,149.87 254.644,34.246 29.838,149.87 "
       style="fill:#caced4;fill-opacity:1;stroke:#000000;stroke-width:0;stroke-miterlimit:4;stroke-dasharray:none;stroke-opacity:1" /><polygon
       id="polygon9"
       points="126.474,126.474 254.644,60.694 382.813,126.474 "
       style="fill:#e9e9e9;fill-opacity:1;stroke:#000000;stroke-width:0;stroke-miterlimit:4;stroke-dasharray:none;stroke-opacity:1" /><rect
       style="color:#000000;clip-rule:nonzero;display:inline;overflow:visible;visibility:visible;opacity:0.98999999;isolation:auto;mix-blend-mode:normal;color-interpolation:sRGB;color-interpolation-filters:linearRGB;solid-color:#000000;solid-opacity:1;fill:#646b79;fill-opacity:1;fill-rule:nonzero;stroke:#bdbdbe;stroke-width:0;stroke-linecap:round;stroke-linejoin:miter;stroke-miterlimit:4;stroke-dasharray:none;stroke-dashoffset:0;stroke-opacity:1;color-rendering:auto;image-rendering:auto;shape-rendering:auto;text-rendering:auto;enable-background:accumulate"
       id="rect9889"
       width="274.91608"
       height="270.80801"
       x="109.08476"
       y="161.35385" /><rect
       x="60.015999"
       y="149.87"
       style="fill:#dededf;fill-opacity:1;stroke:#000000;stroke-width:0;stroke-miterlimit:4;stroke-dasharray:none;stroke-opacity:1"
       width="389.25601"
       height="22.718"
       id="rect13" /><rect
       x="60.015999"
       y="423.50201"
       style="fill:#d0d0d1;fill-opacity:1;stroke:#000000;stroke-width:0;stroke-miterlimit:4;stroke-dasharray:none;stroke-opacity:1"
       width="389.25601"
       height="22.718"
       id="rect15" /><rect
       x="40.011002"
       y="445.203"
       style="fill:#a9a9ab;fill-opacity:1;stroke:#000000;stroke-width:0;stroke-miterlimit:4;stroke-dasharray:none;stroke-opacity:1"
       width="429.26599"
       height="22.718"
       id="rect19" /><g
       id="g9891"><rect
         x="96.184372"
         y="203.105"
         style="fill:#d0d0d1;fill-opacity:1;stroke:#000000;stroke-width:0;stroke-miterlimit:4;stroke-dasharray:none;stroke-opacity:1"
         width="59.338001"
         height="190.55901"
         id="rect25" /><path
         id="path21"
         d="m 71.623163,172.927 0,16.18814 c 0,10.92696 8.903894,19.83086 19.830858,19.83086 l 68.798699,0 c 10.92696,0 19.83086,-8.9039 19.83086,-19.83086 l 0,-16.18814 -108.460417,0 z"
         style="fill:#a9a9ab;fill-opacity:1;stroke:#000000;stroke-width:0;stroke-miterlimit:4;stroke-dasharray:none;stroke-opacity:1"
         inkscape:connector-curvature="0" /><path
         id="path23"
         d="m 180.32337,423.502 0,-16.25972 c 0,-10.97528 -8.94327,-19.91854 -19.91855,-19.91854 l -69.1029,0 c -10.975281,0 -19.918546,8.94326 -19.918546,19.91854 l 0,16.25972 108.939996,0 z"
         style="fill:#a9a9ab;fill-opacity:1;stroke:#000000;stroke-width:0;stroke-miterlimit:4;stroke-dasharray:none;stroke-opacity:1"
         inkscape:connector-curvature="0" /></g><g
       id="g9896"
       transform="translate(-5.2200983,0)"><path
         id="path29"
         d="m 209.886,172.927 0,13.563 c 0,9.155 7.46,16.615 16.615,16.615 l 57.981,0 c 9.155,0 16.615,-7.46 16.615,-16.615 l 0,-13.563 -91.211,0 z"
         style="fill:#a9a9ab;fill-opacity:1;stroke:#000000;stroke-width:0;stroke-miterlimit:4;stroke-dasharray:none;stroke-opacity:1"
         inkscape:connector-curvature="0" /><path
         id="path31"
         d="m 300.758,423.502 0,-13.563 c 0,-9.155 -7.46,-16.615 -16.615,-16.615 l -57.981,0 c -9.155,0 -16.615,7.46 -16.615,16.615 l 0,13.563 91.211,0 z"
         style="fill:#a9a9ab;fill-opacity:1;stroke:#000000;stroke-width:0;stroke-miterlimit:4;stroke-dasharray:none;stroke-opacity:1"
         inkscape:connector-curvature="0" /><rect
         x="225.483"
         y="203.105"
         style="fill:#d0d0d1;fill-opacity:1;stroke:#000000;stroke-width:0;stroke-miterlimit:4;stroke-dasharray:none;stroke-opacity:1"
         width="59.338001"
         height="190.55901"
         id="rect33" /></g><g
       id="g9901"><rect
         x="344.68146"
         y="188.5025"
         style="fill:#d0d0d1;fill-opacity:1;stroke:#000000;stroke-width:0;stroke-miterlimit:4;stroke-dasharray:none;stroke-opacity:1"
         width="59.338001"
         height="212.67136"
         id="rect41" /><path
         id="path37"
         d="m 319.91794,172.927 0,16.18814 c 0,10.92696 8.90389,19.83086 19.83086,19.83086 l 69.2033,0 c 10.92697,0 19.83086,-8.9039 19.83086,-19.83086 l 0,-16.18814 -108.86502,0 z"
         style="fill:#a9a9ab;fill-opacity:1;stroke:#000000;stroke-width:0;stroke-miterlimit:4;stroke-dasharray:none;stroke-opacity:1"
         inkscape:connector-curvature="0" /><path
         id="path39"
         d="m 428.82045,423.502 0,-16.25972 c 0,-10.97528 -8.94327,-19.91854 -19.91855,-19.91854 l -69.1029,0 c -10.97528,0 -19.91855,8.94326 -19.91855,19.91854 l 0,16.25972 108.94,0 z"
         style="fill:#a9a9ab;fill-opacity:1;stroke:#000000;stroke-width:0;stroke-miterlimit:4;stroke-dasharray:none;stroke-opacity:1"
         inkscape:connector-curvature="0" /></g></g><g
     style="font-style:normal;font-weight:normal;font-size:16.25px;line-height:200%;font-family:sans-serif;letter-spacing:7.05000019px;word-spacing:9.64000034px;fill:#000000;fill-opacity:1;stroke:none;stroke-width:1px;stroke-linecap:butt;stroke-linejoin:miter;stroke-opacity:1"
     id="text8129"><path
       d="m 89.836715,77.836652 11.738035,-8.21966 42.60253,29.216438 -12.809,-50.079627 11.73803,-8.219659 40.77061,58.222187 -7.68237,5.379649 -35.80058,-51.124779 12.94947,50.446219 -7.91634,5.54349 -42.97699,-29.419181 35.80058,51.124771 -7.64337,5.35234 -40.770605,-58.222188 z"
       style="font-size:97.5px;line-height:200%;letter-spacing:7.05000019px;word-spacing:9.64000034px"
       id="path8147" /><path
       d="m 236.68127,25.085422 -9.85217,36.390831 26.03325,-2.320681 -16.18108,-34.07015 z m -6.247,-8.954568 10.85904,-0.968007 33.2927,68.39192 -9.95807,0.887692 -8.06802,-17.586738 -31.91325,2.844843 -4.83005,18.736511 -10.10033,0.900374 20.71798,-73.206595 z"
       style="font-size:97.5px;line-height:200%;letter-spacing:7.05000019px;word-spacing:9.64000034px"
       id="path8149" /><path
       d="m 332.89456,35.469692 -10.30153,24.641087 11.15657,4.664149 q 6.19322,2.589154 10.91581,0.796673 4.72259,-1.792481 7.20157,-7.722154 2.46062,-5.88575 0.41899,-10.506101 -2.04163,-4.620351 -8.23484,-7.209505 l -11.15657,-4.664149 z m -5.82433,-11.000587 20.02912,8.373434 q 11.0248,4.609061 14.55365,11.966778 3.59114,7.332157 -0.43031,16.951405 -4.05818,9.707095 -11.79931,12.301651 -7.6972,2.612919 -18.722,-1.996142 l -11.15657,-4.66415 -11.01768,26.354104 -8.87255,-3.709284 27.41565,-65.577796 z"
       style="font-size:97.5px;line-height:200%;letter-spacing:7.05000019px;word-spacing:9.64000034px"
       id="path8151" /><path
       d="m 427.52527,98.151518 -34.85524,14.369072 17.7068,19.22458 17.14844,-33.593652 z m 3.29165,-10.410302 7.3859,8.018996 -33.92919,68.078398 -6.7731,-7.35366 9.0253,-17.11521 -21.70615,-23.56674 -17.79807,7.59046 -6.86985,-7.45871 70.66516,-28.193534 z"
       style="font-size:97.5px;line-height:200%;letter-spacing:7.05000019px;word-spacing:9.64000034px"
       id="path8153" /></g><flowRoot
     xml:space="preserve"
     id="flowRoot8136"
     style="fill:black;stroke:none;stroke-opacity:1;stroke-width:5;stroke-linejoin:miter;stroke-linecap:butt;fill-opacity:1;font-family:sans-serif;font-style:normal;font-weight:normal;font-size:16.25px;line-height:125%;letter-spacing:0px;word-spacing:0px;stroke-miterlimit:4;stroke-dasharray:none"><flowRegion
       id="flowRegion8138"><rect
         id="rect8140"
         width="367.93826"
         height="18.342964"
         x="19.421961"
         y="435.91513"
         style="stroke-width:5;stroke-miterlimit:4;stroke-dasharray:none" /></flowRegion><flowPara
       id="flowPara8142" /></flowRoot><g
     style="font-style:normal;font-weight:normal;font-size:60px;line-height:111.99909449%;font-family:sans-serif;letter-spacing:7px;word-spacing:9.64000034px;fill:#000000;fill-opacity:1;stroke:none;stroke-width:1px;stroke-linecap:butt;stroke-linejoin:miter;stroke-opacity:1"
     id="text8144"><path
       d="m 92.773743,302.97591 3.866624,8.80512 -27.505101,12.07841 40.330044,17.12669 4.97684,11.33332 -44.522433,-18.97735 -19.542479,49.86616 -5.091693,-11.59486 17.616394,-45.0167 -31.340993,13.76289 -3.866624,-8.80512 65.079421,-28.57856 z"
       style="font-size:97.5px;line-height:111.99909449%;letter-spacing:36px;word-spacing:9.64000034px"
       id="path8156" /><path
       d="m 119.95702,358.15982 7.04959,6.61076 -29.536742,31.49742 q -7.815675,8.33449 -8.246346,14.84874 -0.398106,6.47952 6.373666,12.82976 6.737042,6.31767 13.177652,5.50451 6.47318,-0.84788 14.28885,-9.18237 l 29.53674,-31.49742 7.04959,6.61076 -30.35087,32.36559 q -9.50907,10.1403 -19.39672,10.59266 -9.85293,0.48492 -19.645954,-8.6985 -9.827751,-9.21598 -10.010939,-19.11228 -0.148462,-9.86373 9.36061,-20.00403 l 30.350873,-32.3656 z"
       style="font-size:97.5px;line-height:111.99909449%;letter-spacing:36px;word-spacing:9.64000034px"
       id="path8158" /><path
       d="m 180.57229,405.391 8.8842,3.68131 -24.11073,58.18707 31.9743,13.24905 -3.09813,7.4768 -40.85849,-16.93036 27.20885,-65.66387 z"
       style="font-size:97.5px;line-height:111.99909449%;letter-spacing:36px;word-spacing:9.64000034px"
       id="path8160" /><path
       d="m 215.63117,420.47993 60.04322,3.19525 -0.43008,8.08182 -25.19629,-1.34084 -3.34703,62.89563 -9.65065,-0.51357 3.34703,-62.89562 -25.19628,-1.34084 0.43008,-8.08183 z"
       style="font-size:97.5px;line-height:111.99909449%;letter-spacing:36px;word-spacing:9.64000034px"
       id="path8162" /><path
       d="m 285.78907,421.55304 9.0965,-3.26383 14.58271,40.64297 q 3.85871,10.75448 9.46147,14.1056 5.58669,3.3063 14.3247,0.1711 8.69321,-3.11913 10.90352,-9.22299 2.19424,-6.14868 -1.66447,-16.90316 l -14.58271,-40.64297 9.09649,-3.26383 14.98466,41.76323 q 4.69477,13.08462 0.59288,22.09266 -4.05707,8.99197 -16.69358,13.52595 -12.68132,4.55006 -21.57444,0.20463 -8.8483,-4.36151 -13.54307,-17.44613 l -14.98466,-41.76323 z"
       style="font-size:97.5px;line-height:111.99909449%;letter-spacing:36px;word-spacing:9.64000034px"
       id="path8164" /><path
       d="m 403.4277,396.80012 q 2.9805,-1.3377 7.44089,-0.80128 4.49529,0.50402 10.73961,2.89217 l 20.36755,7.59579 -7.57139,7.02849 -19.06934,-7.17696 q -7.44036,-2.83686 -11.46982,-2.27928 -3.99457,0.5252 -8.18152,4.41192 l -7.67606,7.12566 20.43769,22.01635 -7.04802,6.54265 -48.35732,-52.09256 15.91038,-14.76955 q 8.93215,-8.29168 16.7941,-8.63938 7.86196,-0.3477 14.85806,7.1888 4.5669,4.91966 5.27629,10.30224 0.74428,5.35019 -2.4511,10.65494 z m -37.96308,-5.48776 17.16637,18.49233 8.86236,-8.22689 q 5.09412,-4.72885 5.50598,-9.46337 0.41436,-4.80181 -3.82865,-9.37255 -4.243,-4.57075 -8.99754,-4.44437 -4.75204,0.0591 -9.84615,4.78795 l -8.86237,8.2269 z"
       style="font-size:97.5px;line-height:111.99909449%;letter-spacing:36px;word-spacing:9.64000034px"
       id="path8166" /><path
       d="m 393.10872,353.709 4.44332,-9.32644 34.86622,-5.22097 -17.97342,-30.23671 4.44332,-9.32645 22.79819,38.70525 30.55807,14.55852 -4.15665,8.72474 -30.55808,-14.55852 -44.42097,6.68058 z"
       style="font-size:97.5px;line-height:111.99909449%;letter-spacing:36px;word-spacing:9.64000034px"
       id="path8168" /></g></svg>