<svg xmlns="http://www.w3.org/2000/svg" viewBox="0 0 509.287 509.287"><ellipse cx="-360.064" cy="3.247" transform="matrix(-.7007 -.71345 .72249 -.69139 0 0)" rx="166.329" ry="168.556" fill="#58ba52" stroke="#000" stroke-width="4.183"/><ellipse cx="-43.74" cy="357.751" transform="matrix(-.78357 .6213 .61599 .78775 0 0)" rx="242.727" ry="243.124" fill="none" stroke="#000" stroke-width="4.77"/><g stroke-width="7.087"><path fill="#caced4" d="M389.152 170.344l-131.777-68.698-131.777 68.698z"/><path fill="#e9e9e9" d="M182.244 156.444l75.131-39.084 75.13 39.084z"/><path style="isolation:auto;mix-blend-mode:normal" color="#000" overflow="visible" opacity=".99" fill="#646b79" d="M172.05 177.168h161.152v160.901H172.05z"/><path fill="#dededf" d="M143.288 170.344h228.174v13.498H143.288z"/><path fill="#d0d0d1" d="M143.288 332.924h228.174v13.498H143.288z"/><path fill="#a9a9ab" d="M131.561 345.817h251.628v13.498H131.561z"/><path fill="#d0d0d1" d="M164.489 201.974h34.782v113.221H164.49z"/><path d="M150.091 184.044v9.618c0 6.492 5.22 11.783 11.625 11.783h40.329c6.405 0 11.624-5.29 11.624-11.783v-9.618h-63.578zm63.719 148.88v-9.661c0-6.521-5.243-11.835-11.676-11.835h-40.507c-6.434 0-11.676 5.314-11.676 11.835v9.66h63.859zm14.269-148.88v8.058c0 5.44 4.373 9.872 9.74 9.872h33.987c5.366 0 9.739-4.432 9.739-9.872v-8.058h-53.466zm53.267 148.88v-8.059c0-5.44-4.373-9.872-9.74-9.872H237.62c-5.366 0-9.739 4.433-9.739 9.872v8.059h53.466z" fill="#a9a9ab"/><path fill="#d0d0d1" d="M237.221 201.974h34.783v113.221h-34.783zm72.932-8.676h34.783v126.359h-34.783z"/><path d="M295.637 184.044v9.618c0 6.492 5.22 11.783 11.625 11.783h40.566c6.405 0 11.624-5.29 11.624-11.783v-9.618h-63.815zm63.837 148.88v-9.661c0-6.521-5.242-11.835-11.676-11.835h-40.507c-6.433 0-11.676 5.314-11.676 11.835v9.66h63.86z" fill="#a9a9ab"/></g><path d="M116.92 67.05l9.704-5.587 31.01 25.91-6.38-40.09 9.703-5.588 27.52 48.467-6.35 3.656L157.96 51.26l6.464 40.388-6.545 3.768-31.286-26.096 24.165 42.558-6.318 3.638-27.52-48.466zm107.943-34.472l-6.259 28.934 20.191-2.84-13.932-26.094zm-5.216-6.78l8.423-1.185 28.599 52.348-7.724 1.086-6.97-13.48-24.75 3.483-3.034 14.888-7.834 1.102 13.29-58.242zm72.979 6.56l-4.485 20.486 9.21 2.045q5.114 1.135 8.49-.91 3.376-2.047 4.455-6.976 1.071-4.894-1.137-8.18-2.209-3.285-7.322-4.42l-9.211-2.045zm-5.998-7.688l16.536 3.67q9.102 2.022 12.833 7.215 3.774 5.165 2.023 13.162-1.766 8.07-7.348 11.159-5.545 3.096-14.648 1.075l-9.21-2.045-4.798 21.91-7.325-1.626 11.937-54.52zm82.029 35.138l-22.448 19.13 17.74 10.115 4.708-29.245zm-.043-8.576l7.4 4.22-8.928 59.066-6.786-3.869 2.612-14.969-21.748-12.399-11.402 9.958-6.883-3.924 45.735-38.083z" style="line-height:200%" font-weight="400" font-size="80" font-family="sans-serif" letter-spacing="7.05" word-spacing="9.64"/><path d="M119.194 371.671l5.381 5.263-16.326 16.926 34.173.53 6.926 6.775-37.747-.637.53 42.065-7.086-6.93-.496-37.967-18.603 19.286-5.381-5.263 38.63-40.048zm31.436 29.727l6.614 3.643-16.16 29.757q-4.276 7.875-3.33 12.913.964 5.006 7.317 8.505 6.321 3.48 11.027 1.596 4.723-1.916 8.999-9.79l16.16-29.758 6.614 3.642-16.606 30.578q-5.202 9.58-12.581 11.867-7.347 2.305-16.535-2.755-9.22-5.077-11.29-12.567-2.037-7.472 3.166-17.052l16.605-30.579zm49.268 23.734l7.241 1.97-12.815 47.76 26.062 7.091-1.647 6.137-33.304-9.062 14.463-53.896zm22.892 7.134l46.847 2.262-.303 6.35-19.658-.95-2.353 49.416-7.53-.363 2.353-49.416-19.66-.95.303-6.349zm49.727 1.739l7.36-1.642 7.288 33.113q1.928 8.762 5.934 11.928 3.998 3.13 11.068 1.552 7.033-1.57 9.344-6.107 2.302-4.574.374-13.336l-7.288-33.113 7.36-1.643 7.489 34.026q2.346 10.66-1.714 17.273-4.023 6.605-14.247 8.887-10.26 2.29-16.715-1.977-6.418-4.274-8.764-14.935l-7.489-34.026zm87.86.33q2.515-.416 5.77.89 3.29 1.287 7.52 4.357l13.837 9.868-7.113 3.812-12.943-9.288q-5.043-3.652-8.192-4.04-3.117-.406-7.05 1.702l-7.213 3.865L356 466.331l-6.622 3.549-26.044-49.286 14.949-8.01q8.392-4.498 14.389-3.179 5.997 1.32 9.765 8.45 2.46 4.654 1.919 8.884-.509 4.211-3.979 7.596zm-27.525-11.81l9.245 17.496 8.327-4.462q4.786-2.564 6.043-6.076 1.273-3.562-1.012-7.887-2.286-4.324-5.896-5.186-3.594-.911-8.38 1.653l-8.327 4.462zm24.12-19.708l5.965-5.457 26.71 6.585-4.034-27.33 5.964-5.456 5.014 34.921 17.754 19.68-5.58 5.104-17.753-19.68-34.04-8.367z" style="line-height:111.99909449%" font-weight="400" font-size="80" font-family="sans-serif" letter-spacing="14.05" word-spacing="9.64"/></svg>