<svg xmlns="http://www.w3.org/2000/svg" xmlns:xlink="http://www.w3.org/1999/xlink" viewBox="0 0 509.287 509.287"><circle cx="-344.257" cy="105.71" r="200.15" id="a" transform="rotate(-117.93)" fill="#001134" stroke="#000" stroke-width="5"/><circle cx="-3.867" cy="360.1" r="254.644" id="b" transform="scale(-1 1) rotate(44.385)" fill="none" stroke="#000" stroke-width="5"/><g stroke-width="7.087"><path fill="#f1f3f7" d="M257.88 70.176l-156.184 82.829h312.37z"/><path fill="#fff" d="M257.88 89.122l89.047 47.123H168.834z"/><path style="isolation:auto;mix-blend-mode:normal" color="#000" overflow="visible" opacity=".99" fill="#646b79" d="M156.753 161.232h191v193.997h-191z"/><path fill="#dededf" d="M122.662 153.005H393.1v16.274H122.662zm0 196.02H393.1v16.274H122.662z"/><path fill="#bdbdbe" d="M108.763 364.57h298.235v16.275H108.763z"/><path fill="#dededf" d="M147.79 191.14h41.225v136.51H147.79z"/><path d="M130.726 169.522v11.597c0 7.827 6.186 14.206 13.778 14.206h47.798c7.592 0 13.778-6.379 13.778-14.206v-11.597h-75.354zm75.52 179.503v-11.648c0-7.862-6.213-14.269-13.838-14.269h-48.01c-7.625 0-13.839 6.407-13.839 14.27v11.647h75.687zm16.912-179.503v9.716c0 6.558 5.183 11.902 11.544 11.902h40.282c6.36 0 11.544-5.344 11.544-11.902v-9.716h-63.37zm63.134 179.503v-9.716c0-6.558-5.183-11.902-11.543-11.902h-40.283c-6.36 0-11.543 5.344-11.543 11.902v9.716h63.37z" fill="#bdbdbe"/><path fill="#dededf" d="M233.994 191.14h41.226v136.51h-41.226zm86.441-10.46h41.225v152.35h-41.225z"/><path d="M303.23 169.522v11.597c0 7.827 6.186 14.206 13.778 14.206h48.08c7.59 0 13.777-6.379 13.777-14.206v-11.597H303.23zm75.66 179.503v-11.648c0-7.862-6.212-14.269-13.838-14.269h-48.01c-7.624 0-13.838 6.407-13.838 14.27v11.647h75.687z" fill="#bdbdbe"/></g><text style="line-height:200%" x="-5.395" y="-100.347" font-weight="400" font-size="16.25" font-family="sans-serif" letter-spacing="7.05" word-spacing="9.64"><textPath xlink:href="#a" style="line-height:200%" font-size="60">MAPA</textPath></text><text style="line-height:111.99909449%" font-weight="400" font-size="60" font-family="sans-serif" letter-spacing="7" word-spacing="9.64"><textPath xlink:href="#b" style="line-height:111.99909449%" letter-spacing="19.78">KULTURY</textPath></text></svg>