<svg xmlns="http://www.w3.org/2000/svg" viewBox="0 0 509.287 509.287"><ellipse cx="-356.163" cy="-60.816" transform="matrix(-.81634 -.57757 .59372 -.80467 0 0)" rx="151.832" ry="153.898" fill="#58ba52" stroke="#000" stroke-width="3.819"/><circle cx="-180.877" cy="311.401" transform="scale(-1 1) rotate(14.85)" r="254.644" fill="none" stroke="#000" stroke-width="5"/><g stroke-width="7.087"><path fill="#caced4" d="M377.862 177.955L257.146 115.46l-120.717 62.495z"/><path fill="#e9e9e9" d="M188.32 165.31l68.826-35.555 68.824 35.555z"/><path style="isolation:auto;mix-blend-mode:normal" color="#000" overflow="visible" opacity=".99" fill="#646b79" d="M178.983 184.163h147.625v146.374H178.983z"/><path fill="#dededf" d="M152.634 177.955h209.024v12.28H152.634z"/><path fill="#d0d0d1" d="M152.634 325.856h209.024v12.28H152.634z"/><path fill="#a9a9ab" d="M141.892 337.586H372.4v12.28H141.892z"/><path fill="#d0d0d1" d="M172.055 206.73h31.864v102.998h-31.864z"/><path d="M158.867 190.418v8.75c0 5.906 4.78 10.719 10.649 10.719h36.943c5.868 0 10.65-4.813 10.65-10.72v-8.75h-58.242zm58.37 135.438v-8.788c0-5.933-4.803-10.767-10.696-10.767h-37.107c-5.894 0-10.696 4.834-10.696 10.767v8.788h58.499zm13.071-135.438v7.33c0 4.95 4.006 8.981 8.922 8.981h31.135c4.916 0 8.922-4.032 8.922-8.98v-7.331h-48.979zm48.797 135.438v-7.33c0-4.95-4.006-8.981-8.922-8.981h-31.135c-4.916 0-8.922 4.032-8.922 8.98v7.331h48.98z" fill="#a9a9ab"/><path fill="#d0d0d1" d="M238.684 206.73h31.863v102.998h-31.863zm66.81-7.894h31.864v114.951h-31.864z"/><path d="M292.197 190.418v8.75c0 5.906 4.781 10.719 10.649 10.719h37.16c5.868 0 10.65-4.813 10.65-10.72v-8.75h-58.46zm58.479 135.438v-8.788c0-5.933-4.803-10.767-10.696-10.767h-37.107c-5.894 0-10.696 4.834-10.696 10.767v8.788h58.499z" fill="#a9a9ab"/></g><path d="M89.837 77.837l11.738-8.22 42.602 29.216-12.809-50.08 11.738-8.219 40.77 58.222-7.681 5.38-35.801-51.125 12.95 50.446-7.917 5.544-42.977-29.42 35.8 51.125-7.643 5.353-40.77-58.222zm146.844-52.752l-9.852 36.391 26.033-2.32-16.18-34.07zm-6.247-8.954l10.86-.968 33.292 68.392-9.958.887-8.068-17.586-31.913 2.845-4.83 18.736-10.1.9 20.717-73.206zM332.895 35.47l-10.302 24.64 11.157 4.665q6.193 2.59 10.915.797 4.723-1.793 7.202-7.723 2.46-5.885.419-10.506-2.042-4.62-8.235-7.21l-11.156-4.663zm-5.825-11l20.03 8.373q11.024 4.609 14.553 11.966 3.591 7.332-.43 16.952-4.058 9.707-11.8 12.301-7.697 2.613-18.722-1.996l-11.156-4.664-11.018 26.354-8.872-3.71L327.07 24.47zm100.455 73.682L392.67 112.52l17.707 19.224 17.148-33.593zm3.292-10.41l7.386 8.018-33.93 68.079-6.772-7.354 9.025-17.115-21.706-23.567-17.798 7.59-6.87-7.458 70.665-28.194z" style="line-height:200%" font-weight="400" font-size="97.5" font-family="sans-serif" letter-spacing="7.05" word-spacing="9.64"/><path d="M92.774 302.976l3.866 8.805-27.505 12.078 40.33 17.127 4.977 11.333-44.522-18.977-19.543 49.866-5.091-11.595 17.616-45.016L31.56 340.36l-3.867-8.806 65.08-28.578zm27.183 55.184l7.05 6.61-29.537 31.498q-7.816 8.334-8.246 14.849-.399 6.48 6.373 12.83 6.737 6.317 13.178 5.504 6.473-.848 14.289-9.182L152.6 388.77l7.05 6.611-30.35 32.366q-9.51 10.14-19.398 10.592-9.853.485-19.646-8.698-9.827-9.216-10.01-19.113-.149-9.863 9.36-20.004l30.351-32.365zm60.615 47.231l8.884 3.681-24.11 58.187 31.974 13.25-3.098 7.476-40.859-16.93 27.21-65.664zm35.059 15.089l60.043 3.195-.43 8.082-25.196-1.34-3.347 62.895-9.65-.514 3.346-62.895-25.196-1.341.43-8.082zm70.159 1.073l9.096-3.264 14.582 40.643q3.859 10.755 9.462 14.106 5.586 3.306 14.324.17 8.694-3.118 10.904-9.222 2.194-6.149-1.664-16.903L327.91 406.44l9.096-3.264 14.985 41.763q4.695 13.085.593 22.093-4.057 8.992-16.694 13.526-12.681 4.55-21.574.204-8.848-4.361-13.543-17.446l-14.985-41.763zM403.428 396.8q2.98-1.338 7.44-.801 4.496.504 10.74 2.892l20.368 7.596-7.572 7.028-19.069-7.177q-7.44-2.837-11.47-2.279-3.994.525-8.181 4.412l-7.676 7.126 20.437 22.016-7.048 6.543-48.357-52.093 15.91-14.77q8.932-8.291 16.794-8.639 7.862-.348 14.859 7.189 4.566 4.92 5.276 10.302.744 5.35-2.451 10.655zm-37.963-5.488l17.166 18.493 8.862-8.227q5.094-4.73 5.506-9.464.415-4.801-3.828-9.372-4.243-4.57-8.998-4.444-4.752.059-9.846 4.787l-8.862 8.227zm27.644-37.603l4.443-9.326 34.866-5.221-17.973-30.237 4.443-9.327 22.798 38.706 30.558 14.558-4.156 8.725-30.558-14.559-44.421 6.681z" style="line-height:111.99909449%" font-weight="400" font-size="97.5" font-family="sans-serif" letter-spacing="36" word-spacing="9.64"/></svg>